<?xml version="1.0" encoding="utf-8"?><!-- Uploaded to: SVG Repo, www.svgrepo.com, Generator: SVG Repo Mixer Tools -->
<svg width="800px" height="800px" viewBox="0 0 24 24" xmlns="http://www.w3.org/2000/svg" id="wallet" class="icon glyph"><path d="M20,18a2.77,2.77,0,0,0,1-.18V20a2,2,0,0,1-2,2H5a3,3,0,0,1-3-3V5A2.7,2.7,0,0,1,2,4.5,3.09,3.09,0,0,1,5.11,2H16a2,2,0,0,1,2,2V5H16V4H5.11A1.09,1.09,0,0,0,4,4.82.92.92,0,0,0,4,5V5a1,1,0,0,0,.24.65A1,1,0,0,0,5,6H19a2,2,0,0,1,2,2v2.18A2.77,2.77,0,0,0,20,10H17a3,3,0,0,0-3,3v2a3,3,0,0,0,3,3Zm1-6.73A2,2,0,0,0,20,11H17a2,2,0,0,0-2,2v2a2,2,0,0,0,2,2h3a2,2,0,0,0,2-2V13A2,2,0,0,0,21,11.27Z" style="fill:#231f20"></path></svg>