<svg width="1024" height="744" viewBox="0 0 1024 744" fill="none" xmlns="http://www.w3.org/2000/svg">
<g clip-path="url(#clip0_47_242)">
<rect width="1024" height="744" fill="#F6F8FA"/>
<rect width="1024" height="744" fill="white"/>
<path d="M1024 71H0V73H1024V71Z" fill="#545F71" mask="url(#path-1-inside-1_47_242)"/>
<g clip-path="url(#clip1_47_242)">
<path d="M16.7082 38.6607L28.4798 51.4932C29.4312 52.6146 29.2933 54.2949 28.1719 55.2463C27.0505 56.1976 25.3702 56.0597 24.4189 54.9383L8.7648 37.8735C8.53971 37.6474 8.3573 37.3824 8.22637 37.0914C8.06355 36.7297 7.98377 36.3361 7.99289 35.9395L7.99293 35.9371C8.00199 35.5414 8.09893 35.1527 8.27672 34.799C8.29401 34.7648 8.31203 34.7309 8.33078 34.6975C8.43928 34.5034 8.57186 34.3237 8.72539 34.1628L24.7957 16.8247C25.7954 15.7462 27.4801 15.6822 28.5586 16.6819C29.6371 17.6815 29.7011 19.3663 28.7014 20.4448L16.7536 33.3353H45.2871C46.7577 33.3353 47.9499 34.5274 47.9499 35.998C47.9499 37.4686 46.7577 38.6608 45.2871 38.6608H16.7082V38.6607Z" fill="black"/>
</g>
<path d="M478.453 37.7578H480.602C480.544 38.5182 480.333 39.1927 479.969 39.7812C479.604 40.3646 479.096 40.8229 478.445 41.1562C477.794 41.4896 477.005 41.6562 476.078 41.6562C475.365 41.6562 474.721 41.5312 474.148 41.2812C473.581 41.026 473.094 40.6641 472.688 40.1953C472.286 39.7214 471.979 39.1536 471.766 38.4922C471.552 37.8255 471.445 37.0781 471.445 36.25V35.3828C471.445 34.5547 471.555 33.8073 471.773 33.1406C471.992 32.474 472.305 31.9062 472.711 31.4375C473.122 30.9635 473.615 30.599 474.188 30.3438C474.766 30.0885 475.411 29.9609 476.125 29.9609C477.052 29.9609 477.836 30.1328 478.477 30.4766C479.117 30.8151 479.615 31.2812 479.969 31.875C480.323 32.4688 480.536 33.151 480.609 33.9219H478.461C478.419 33.4427 478.315 33.0365 478.148 32.7031C477.987 32.3698 477.742 32.1172 477.414 31.9453C477.091 31.7682 476.661 31.6797 476.125 31.6797C475.708 31.6797 475.341 31.7578 475.023 31.9141C474.711 32.0703 474.451 32.3047 474.242 32.6172C474.034 32.9245 473.878 33.3099 473.773 33.7734C473.669 34.2318 473.617 34.763 473.617 35.3672V36.25C473.617 36.8281 473.664 37.3464 473.758 37.8047C473.852 38.263 473.997 38.651 474.195 38.9688C474.393 39.2865 474.648 39.5286 474.961 39.6953C475.273 39.862 475.646 39.9453 476.078 39.9453C476.604 39.9453 477.031 39.862 477.359 39.6953C477.693 39.5286 477.945 39.2839 478.117 38.9609C478.294 38.638 478.406 38.237 478.453 37.7578ZM489.812 34.8203V36.5078H483.828V34.8203H489.812ZM484.414 30.125V41.5H482.266V30.125H484.414ZM491.406 30.125V41.5H489.258V30.125H491.406ZM501.133 39.8125V41.5H495.086V39.8125H501.133ZM495.742 30.125V41.5H493.594V30.125H495.742ZM500.344 34.8203V36.4688H495.086V34.8203H500.344ZM501.109 30.125V31.8203H495.086V30.125H501.109ZM509.281 37.7578H511.43C511.372 38.5182 511.161 39.1927 510.797 39.7812C510.432 40.3646 509.924 40.8229 509.273 41.1562C508.622 41.4896 507.833 41.6562 506.906 41.6562C506.193 41.6562 505.549 41.5312 504.977 41.2812C504.409 41.026 503.922 40.6641 503.516 40.1953C503.115 39.7214 502.807 39.1536 502.594 38.4922C502.38 37.8255 502.273 37.0781 502.273 36.25V35.3828C502.273 34.5547 502.383 33.8073 502.602 33.1406C502.82 32.474 503.133 31.9062 503.539 31.4375C503.951 30.9635 504.443 30.599 505.016 30.3438C505.594 30.0885 506.24 29.9609 506.953 29.9609C507.88 29.9609 508.664 30.1328 509.305 30.4766C509.945 30.8151 510.443 31.2812 510.797 31.875C511.151 32.4688 511.365 33.151 511.438 33.9219H509.289C509.247 33.4427 509.143 33.0365 508.977 32.7031C508.815 32.3698 508.57 32.1172 508.242 31.9453C507.919 31.7682 507.49 31.6797 506.953 31.6797C506.536 31.6797 506.169 31.7578 505.852 31.9141C505.539 32.0703 505.279 32.3047 505.07 32.6172C504.862 32.9245 504.706 33.3099 504.602 33.7734C504.497 34.2318 504.445 34.763 504.445 35.3672V36.25C504.445 36.8281 504.492 37.3464 504.586 37.8047C504.68 38.263 504.826 38.651 505.023 38.9688C505.221 39.2865 505.477 39.5286 505.789 39.6953C506.102 39.862 506.474 39.9453 506.906 39.9453C507.432 39.9453 507.859 39.862 508.188 39.6953C508.521 39.5286 508.773 39.2839 508.945 38.9609C509.122 38.638 509.234 38.237 509.281 37.7578ZM515.242 30.125V41.5H513.094V30.125H515.242ZM522.07 30.125L517.508 35.6719L514.898 38.4609L514.516 36.375L516.328 34.0234L519.438 30.125H522.07ZM519.68 41.5L516.141 36.1719L517.68 34.7812L522.234 41.5H519.68ZM532.195 35.5234V36.1094C532.195 36.9688 532.081 37.7422 531.852 38.4297C531.622 39.112 531.297 39.6927 530.875 40.1719C530.453 40.651 529.951 41.0182 529.367 41.2734C528.784 41.5286 528.135 41.6562 527.422 41.6562C526.719 41.6562 526.073 41.5286 525.484 41.2734C524.901 41.0182 524.396 40.651 523.969 40.1719C523.542 39.6927 523.211 39.112 522.977 38.4297C522.742 37.7422 522.625 36.9688 522.625 36.1094V35.5234C522.625 34.6589 522.742 33.8854 522.977 33.2031C523.211 32.5208 523.539 31.9401 523.961 31.4609C524.383 30.9766 524.885 30.6068 525.469 30.3516C526.057 30.0964 526.703 29.9688 527.406 29.9688C528.12 29.9688 528.768 30.0964 529.352 30.3516C529.935 30.6068 530.438 30.9766 530.859 31.4609C531.286 31.9401 531.615 32.5208 531.844 33.2031C532.078 33.8854 532.195 34.6589 532.195 35.5234ZM530.023 36.1094V35.5078C530.023 34.888 529.966 34.3438 529.852 33.875C529.737 33.401 529.568 33.0026 529.344 32.6797C529.12 32.3568 528.844 32.1146 528.516 31.9531C528.188 31.7865 527.818 31.7031 527.406 31.7031C526.99 31.7031 526.62 31.7865 526.297 31.9531C525.979 32.1146 525.708 32.3568 525.484 32.6797C525.26 33.0026 525.089 33.401 524.969 33.875C524.854 34.3438 524.797 34.888 524.797 35.5078V36.1094C524.797 36.724 524.854 37.2682 524.969 37.7422C525.089 38.2161 525.26 38.6172 525.484 38.9453C525.714 39.2682 525.99 39.513 526.312 39.6797C526.635 39.8464 527.005 39.9297 527.422 39.9297C527.839 39.9297 528.208 39.8464 528.531 39.6797C528.854 39.513 529.125 39.2682 529.344 38.9453C529.568 38.6172 529.737 38.2161 529.852 37.7422C529.966 37.2682 530.023 36.724 530.023 36.1094ZM540.344 30.125H542.492V37.6797C542.492 38.5495 542.305 39.2812 541.93 39.875C541.555 40.4635 541.044 40.9089 540.398 41.2109C539.753 41.5078 539.018 41.6562 538.195 41.6562C537.362 41.6562 536.62 41.5078 535.969 41.2109C535.318 40.9089 534.807 40.4635 534.438 39.875C534.068 39.2812 533.883 38.5495 533.883 37.6797V30.125H536.031V37.6797C536.031 38.2109 536.12 38.6458 536.297 38.9844C536.474 39.3177 536.724 39.5651 537.047 39.7266C537.37 39.888 537.753 39.9688 538.195 39.9688C538.643 39.9688 539.026 39.888 539.344 39.7266C539.667 39.5651 539.914 39.3177 540.086 38.9844C540.258 38.6458 540.344 38.2109 540.344 37.6797V30.125ZM549.414 30.125V41.5H547.273V30.125H549.414ZM552.945 30.125V31.8203H543.781V30.125H552.945Z" fill="black"/>
<path d="M483.714 124.203V137H482.044V124.203H483.714ZM487.827 124.203V125.592H477.939V124.203H487.827ZM488.17 132.351V132.148C488.17 131.463 488.27 130.827 488.469 130.241C488.668 129.649 488.955 129.137 489.33 128.703C489.705 128.264 490.159 127.924 490.692 127.684C491.226 127.438 491.823 127.314 492.485 127.314C493.153 127.314 493.754 127.438 494.287 127.684C494.826 127.924 495.283 128.264 495.658 128.703C496.039 129.137 496.329 129.649 496.528 130.241C496.728 130.827 496.827 131.463 496.827 132.148V132.351C496.827 133.036 496.728 133.672 496.528 134.258C496.329 134.844 496.039 135.356 495.658 135.796C495.283 136.229 494.829 136.569 494.296 136.815C493.769 137.056 493.171 137.176 492.503 137.176C491.835 137.176 491.234 137.056 490.701 136.815C490.168 136.569 489.711 136.229 489.33 135.796C488.955 135.356 488.668 134.844 488.469 134.258C488.27 133.672 488.17 133.036 488.17 132.351ZM489.796 132.148V132.351C489.796 132.825 489.852 133.273 489.963 133.695C490.074 134.111 490.241 134.48 490.464 134.803C490.692 135.125 490.977 135.38 491.316 135.567C491.656 135.749 492.052 135.84 492.503 135.84C492.948 135.84 493.338 135.749 493.672 135.567C494.012 135.38 494.293 135.125 494.516 134.803C494.738 134.48 494.905 134.111 495.017 133.695C495.134 133.273 495.192 132.825 495.192 132.351V132.148C495.192 131.68 495.134 131.237 495.017 130.821C494.905 130.399 494.735 130.027 494.507 129.705C494.284 129.377 494.003 129.119 493.663 128.932C493.329 128.744 492.937 128.65 492.485 128.65C492.04 128.65 491.647 128.744 491.308 128.932C490.974 129.119 490.692 129.377 490.464 129.705C490.241 130.027 490.074 130.399 489.963 130.821C489.852 131.237 489.796 131.68 489.796 132.148ZM502.848 127.49V128.738H497.706V127.49H502.848ZM499.446 125.179H501.072V134.645C501.072 134.967 501.122 135.21 501.222 135.374C501.321 135.538 501.45 135.646 501.608 135.699C501.767 135.752 501.937 135.778 502.118 135.778C502.253 135.778 502.394 135.767 502.54 135.743C502.692 135.714 502.807 135.69 502.883 135.673L502.892 137C502.763 137.041 502.593 137.079 502.382 137.114C502.177 137.155 501.928 137.176 501.635 137.176C501.236 137.176 500.87 137.097 500.536 136.938C500.202 136.78 499.936 136.517 499.736 136.147C499.543 135.772 499.446 135.269 499.446 134.636V125.179ZM510.362 135.374V130.479C510.362 130.104 510.286 129.778 510.134 129.503C509.987 129.222 509.765 129.005 509.466 128.853C509.167 128.7 508.798 128.624 508.358 128.624C507.948 128.624 507.588 128.694 507.277 128.835C506.973 128.976 506.732 129.16 506.557 129.389C506.387 129.617 506.302 129.863 506.302 130.127H504.676C504.676 129.787 504.764 129.45 504.939 129.116C505.115 128.782 505.367 128.48 505.695 128.211C506.029 127.936 506.428 127.719 506.891 127.561C507.359 127.396 507.881 127.314 508.455 127.314C509.146 127.314 509.756 127.432 510.283 127.666C510.816 127.9 511.232 128.255 511.531 128.729C511.836 129.198 511.988 129.787 511.988 130.496V134.926C511.988 135.242 512.015 135.579 512.067 135.937C512.126 136.294 512.211 136.602 512.322 136.859V137H510.626C510.544 136.812 510.479 136.563 510.433 136.253C510.386 135.937 510.362 135.644 510.362 135.374ZM510.644 131.234L510.661 132.377H509.018C508.555 132.377 508.142 132.415 507.778 132.491C507.415 132.562 507.11 132.67 506.864 132.816C506.618 132.963 506.431 133.147 506.302 133.37C506.173 133.587 506.108 133.842 506.108 134.135C506.108 134.434 506.176 134.706 506.311 134.952C506.445 135.198 506.647 135.395 506.917 135.541C507.192 135.682 507.529 135.752 507.928 135.752C508.426 135.752 508.865 135.646 509.246 135.436C509.627 135.225 509.929 134.967 510.151 134.662C510.38 134.357 510.503 134.062 510.521 133.774L511.215 134.557C511.174 134.803 511.062 135.075 510.881 135.374C510.699 135.673 510.456 135.96 510.151 136.235C509.853 136.505 509.495 136.73 509.079 136.912C508.669 137.088 508.206 137.176 507.69 137.176C507.046 137.176 506.48 137.05 505.994 136.798C505.514 136.546 505.139 136.209 504.869 135.787C504.605 135.359 504.474 134.882 504.474 134.354C504.474 133.845 504.573 133.396 504.772 133.01C504.972 132.617 505.259 132.292 505.634 132.034C506.009 131.771 506.46 131.571 506.987 131.437C507.515 131.302 508.104 131.234 508.754 131.234H510.644ZM516.312 123.5V137H514.678V123.5H516.312ZM528.195 131.015H524.952L524.935 129.652H527.879C528.365 129.652 528.79 129.57 529.153 129.406C529.517 129.242 529.798 129.008 529.997 128.703C530.202 128.393 530.305 128.023 530.305 127.596C530.305 127.127 530.214 126.746 530.032 126.453C529.856 126.154 529.584 125.938 529.215 125.803C528.852 125.662 528.389 125.592 527.826 125.592H525.33V137H523.634V124.203H527.826C528.482 124.203 529.068 124.271 529.584 124.405C530.1 124.534 530.536 124.739 530.894 125.021C531.257 125.296 531.532 125.647 531.72 126.075C531.907 126.503 532.001 127.016 532.001 127.613C532.001 128.141 531.866 128.618 531.597 129.046C531.327 129.468 530.952 129.813 530.472 130.083C529.997 130.353 529.44 130.525 528.802 130.602L528.195 131.015ZM528.116 137H524.284L525.242 135.62H528.116C528.655 135.62 529.112 135.526 529.487 135.339C529.868 135.151 530.158 134.888 530.357 134.548C530.557 134.202 530.656 133.795 530.656 133.326C530.656 132.852 530.571 132.441 530.401 132.096C530.231 131.75 529.965 131.483 529.602 131.296C529.238 131.108 528.77 131.015 528.195 131.015H525.778L525.796 129.652H529.101L529.461 130.145C530.076 130.197 530.598 130.373 531.025 130.672C531.453 130.965 531.778 131.34 532.001 131.797C532.229 132.254 532.344 132.758 532.344 133.309C532.344 134.105 532.168 134.779 531.816 135.33C531.471 135.875 530.981 136.291 530.349 136.578C529.716 136.859 528.972 137 528.116 137ZM536.369 127.49V137H534.734V127.49H536.369ZM534.611 124.968C534.611 124.704 534.69 124.481 534.849 124.3C535.013 124.118 535.253 124.027 535.569 124.027C535.88 124.027 536.117 124.118 536.281 124.3C536.451 124.481 536.536 124.704 536.536 124.968C536.536 125.22 536.451 125.437 536.281 125.618C536.117 125.794 535.88 125.882 535.569 125.882C535.253 125.882 535.013 125.794 534.849 125.618C534.69 125.437 534.611 125.22 534.611 124.968ZM540.746 123.5V137H539.111V123.5H540.746ZM545.123 123.5V137H543.488V123.5H545.123Z" fill="black"/>
<path d="M426.031 158.25H434.516C436.255 158.25 437.75 158.51 439 159.031C440.26 159.552 441.229 160.323 441.906 161.344C442.583 162.365 442.922 163.62 442.922 165.109C442.922 166.328 442.714 167.375 442.297 168.25C441.891 169.115 441.312 169.839 440.562 170.422C439.823 170.995 438.953 171.453 437.953 171.797L436.469 172.578H429.094L429.062 168.922H434.547C435.37 168.922 436.052 168.776 436.594 168.484C437.135 168.193 437.542 167.786 437.812 167.266C438.094 166.745 438.234 166.141 438.234 165.453C438.234 164.724 438.099 164.094 437.828 163.562C437.557 163.031 437.146 162.625 436.594 162.344C436.042 162.062 435.349 161.922 434.516 161.922H430.719V181H426.031V158.25ZM438.75 181L433.562 170.859L438.516 170.828L443.766 180.781V181H438.75ZM450.75 167.344V187.5H446.25V164.094H450.422L450.75 167.344ZM461.453 172.359V172.688C461.453 173.917 461.307 175.057 461.016 176.109C460.734 177.161 460.318 178.078 459.766 178.859C459.214 179.63 458.526 180.234 457.703 180.672C456.891 181.099 455.953 181.312 454.891 181.312C453.859 181.312 452.964 181.104 452.203 180.688C451.443 180.271 450.802 179.688 450.281 178.938C449.771 178.177 449.359 177.297 449.047 176.297C448.734 175.297 448.495 174.224 448.328 173.078V172.219C448.495 170.99 448.734 169.865 449.047 168.844C449.359 167.812 449.771 166.922 450.281 166.172C450.802 165.411 451.438 164.823 452.188 164.406C452.948 163.99 453.839 163.781 454.859 163.781C455.932 163.781 456.875 163.984 457.688 164.391C458.51 164.797 459.198 165.38 459.75 166.141C460.312 166.901 460.734 167.807 461.016 168.859C461.307 169.911 461.453 171.078 461.453 172.359ZM456.938 172.688V172.359C456.938 171.641 456.875 170.979 456.75 170.375C456.635 169.76 456.448 169.224 456.188 168.766C455.938 168.307 455.604 167.953 455.188 167.703C454.781 167.443 454.286 167.312 453.703 167.312C453.089 167.312 452.562 167.411 452.125 167.609C451.698 167.807 451.349 168.094 451.078 168.469C450.807 168.844 450.604 169.292 450.469 169.812C450.333 170.333 450.25 170.922 450.219 171.578V173.75C450.271 174.521 450.417 175.214 450.656 175.828C450.896 176.432 451.266 176.911 451.766 177.266C452.266 177.62 452.922 177.797 453.734 177.797C454.328 177.797 454.828 177.667 455.234 177.406C455.641 177.135 455.969 176.766 456.219 176.297C456.479 175.828 456.661 175.286 456.766 174.672C456.88 174.057 456.938 173.396 456.938 172.688ZM464.469 178.828C464.469 178.161 464.698 177.604 465.156 177.156C465.625 176.708 466.245 176.484 467.016 176.484C467.786 176.484 468.401 176.708 468.859 177.156C469.328 177.604 469.562 178.161 469.562 178.828C469.562 179.495 469.328 180.052 468.859 180.5C468.401 180.948 467.786 181.172 467.016 181.172C466.245 181.172 465.625 180.948 465.156 180.5C464.698 180.052 464.469 179.495 464.469 178.828ZM485.547 170.641L481.953 169.781L483.25 158.25H496.031V161.891H486.953L486.391 166.938C486.693 166.76 487.151 166.573 487.766 166.375C488.38 166.167 489.068 166.062 489.828 166.062C490.932 166.062 491.911 166.234 492.766 166.578C493.62 166.922 494.344 167.422 494.938 168.078C495.542 168.734 496 169.536 496.312 170.484C496.625 171.432 496.781 172.505 496.781 173.703C496.781 174.714 496.625 175.677 496.312 176.594C496 177.5 495.526 178.312 494.891 179.031C494.255 179.74 493.458 180.297 492.5 180.703C491.542 181.109 490.406 181.312 489.094 181.312C488.115 181.312 487.167 181.167 486.25 180.875C485.344 180.583 484.526 180.151 483.797 179.578C483.078 179.005 482.5 178.312 482.062 177.5C481.635 176.677 481.411 175.74 481.391 174.688H485.859C485.922 175.333 486.089 175.891 486.359 176.359C486.641 176.818 487.01 177.172 487.469 177.422C487.927 177.672 488.464 177.797 489.078 177.797C489.651 177.797 490.141 177.688 490.547 177.469C490.953 177.25 491.281 176.948 491.531 176.562C491.781 176.167 491.964 175.708 492.078 175.188C492.203 174.656 492.266 174.083 492.266 173.469C492.266 172.854 492.193 172.297 492.047 171.797C491.901 171.297 491.677 170.865 491.375 170.5C491.073 170.135 490.688 169.854 490.219 169.656C489.76 169.458 489.224 169.359 488.609 169.359C487.776 169.359 487.13 169.49 486.672 169.75C486.224 170.01 485.849 170.307 485.547 170.641ZM504.297 167.672H506.703C507.474 167.672 508.109 167.542 508.609 167.281C509.109 167.01 509.479 166.635 509.719 166.156C509.969 165.667 510.094 165.099 510.094 164.453C510.094 163.87 509.979 163.354 509.75 162.906C509.531 162.448 509.193 162.094 508.734 161.844C508.276 161.583 507.698 161.453 507 161.453C506.448 161.453 505.938 161.562 505.469 161.781C505 162 504.625 162.307 504.344 162.703C504.062 163.099 503.922 163.578 503.922 164.141H499.406C499.406 162.891 499.74 161.802 500.406 160.875C501.083 159.948 501.99 159.224 503.125 158.703C504.26 158.182 505.51 157.922 506.875 157.922C508.417 157.922 509.766 158.172 510.922 158.672C512.078 159.161 512.979 159.885 513.625 160.844C514.271 161.802 514.594 162.99 514.594 164.406C514.594 165.125 514.427 165.823 514.094 166.5C513.76 167.167 513.281 167.771 512.656 168.312C512.042 168.844 511.292 169.271 510.406 169.594C509.521 169.906 508.526 170.062 507.422 170.062H504.297V167.672ZM504.297 171.094V168.766H507.422C508.661 168.766 509.75 168.906 510.688 169.188C511.625 169.469 512.411 169.875 513.047 170.406C513.682 170.927 514.161 171.547 514.484 172.266C514.807 172.974 514.969 173.76 514.969 174.625C514.969 175.688 514.766 176.635 514.359 177.469C513.953 178.292 513.38 178.99 512.641 179.562C511.911 180.135 511.057 180.573 510.078 180.875C509.099 181.167 508.031 181.312 506.875 181.312C505.917 181.312 504.974 181.182 504.047 180.922C503.13 180.651 502.297 180.25 501.547 179.719C500.807 179.177 500.214 178.5 499.766 177.688C499.328 176.865 499.109 175.891 499.109 174.766H503.625C503.625 175.349 503.771 175.87 504.062 176.328C504.354 176.786 504.755 177.146 505.266 177.406C505.786 177.667 506.365 177.797 507 177.797C507.719 177.797 508.333 177.667 508.844 177.406C509.365 177.135 509.76 176.76 510.031 176.281C510.312 175.792 510.453 175.224 510.453 174.578C510.453 173.745 510.302 173.078 510 172.578C509.698 172.068 509.266 171.693 508.703 171.453C508.141 171.214 507.474 171.094 506.703 171.094H504.297ZM522.516 177.203L522.5 180.219C522.5 181.375 522.208 182.542 521.625 183.719C521.052 184.896 520.323 185.859 519.438 186.609L517.094 185.406C517.354 184.927 517.609 184.448 517.859 183.969C518.109 183.49 518.318 182.964 518.484 182.391C518.651 181.818 518.734 181.167 518.734 180.438V177.203H522.516ZM541.25 167.625V171.562C541.25 173.271 541.068 174.745 540.703 175.984C540.339 177.214 539.812 178.224 539.125 179.016C538.448 179.797 537.641 180.375 536.703 180.75C535.766 181.125 534.724 181.312 533.578 181.312C532.661 181.312 531.807 181.198 531.016 180.969C530.224 180.729 529.51 180.359 528.875 179.859C528.25 179.359 527.708 178.729 527.25 177.969C526.802 177.198 526.458 176.281 526.219 175.219C525.979 174.156 525.859 172.938 525.859 171.562V167.625C525.859 165.917 526.042 164.453 526.406 163.234C526.781 162.005 527.307 161 527.984 160.219C528.672 159.438 529.484 158.865 530.422 158.5C531.359 158.125 532.401 157.938 533.547 157.938C534.464 157.938 535.312 158.057 536.094 158.297C536.885 158.526 537.599 158.885 538.234 159.375C538.87 159.865 539.411 160.495 539.859 161.266C540.307 162.026 540.651 162.938 540.891 164C541.13 165.052 541.25 166.26 541.25 167.625ZM536.734 172.156V167.016C536.734 166.193 536.688 165.474 536.594 164.859C536.51 164.245 536.38 163.724 536.203 163.297C536.026 162.859 535.807 162.505 535.547 162.234C535.286 161.964 534.99 161.766 534.656 161.641C534.323 161.516 533.953 161.453 533.547 161.453C533.036 161.453 532.583 161.552 532.188 161.75C531.802 161.948 531.474 162.266 531.203 162.703C530.932 163.13 530.724 163.703 530.578 164.422C530.443 165.13 530.375 165.995 530.375 167.016V172.156C530.375 172.979 530.417 173.703 530.5 174.328C530.594 174.953 530.729 175.49 530.906 175.938C531.094 176.375 531.312 176.734 531.562 177.016C531.823 177.286 532.12 177.484 532.453 177.609C532.797 177.734 533.172 177.797 533.578 177.797C534.078 177.797 534.521 177.698 534.906 177.5C535.302 177.292 535.635 176.969 535.906 176.531C536.188 176.083 536.396 175.5 536.531 174.781C536.667 174.062 536.734 173.188 536.734 172.156ZM559.625 167.625V171.562C559.625 173.271 559.443 174.745 559.078 175.984C558.714 177.214 558.188 178.224 557.5 179.016C556.823 179.797 556.016 180.375 555.078 180.75C554.141 181.125 553.099 181.312 551.953 181.312C551.036 181.312 550.182 181.198 549.391 180.969C548.599 180.729 547.885 180.359 547.25 179.859C546.625 179.359 546.083 178.729 545.625 177.969C545.177 177.198 544.833 176.281 544.594 175.219C544.354 174.156 544.234 172.938 544.234 171.562V167.625C544.234 165.917 544.417 164.453 544.781 163.234C545.156 162.005 545.682 161 546.359 160.219C547.047 159.438 547.859 158.865 548.797 158.5C549.734 158.125 550.776 157.938 551.922 157.938C552.839 157.938 553.688 158.057 554.469 158.297C555.26 158.526 555.974 158.885 556.609 159.375C557.245 159.865 557.786 160.495 558.234 161.266C558.682 162.026 559.026 162.938 559.266 164C559.505 165.052 559.625 166.26 559.625 167.625ZM555.109 172.156V167.016C555.109 166.193 555.062 165.474 554.969 164.859C554.885 164.245 554.755 163.724 554.578 163.297C554.401 162.859 554.182 162.505 553.922 162.234C553.661 161.964 553.365 161.766 553.031 161.641C552.698 161.516 552.328 161.453 551.922 161.453C551.411 161.453 550.958 161.552 550.562 161.75C550.177 161.948 549.849 162.266 549.578 162.703C549.307 163.13 549.099 163.703 548.953 164.422C548.818 165.13 548.75 165.995 548.75 167.016V172.156C548.75 172.979 548.792 173.703 548.875 174.328C548.969 174.953 549.104 175.49 549.281 175.938C549.469 176.375 549.688 176.734 549.938 177.016C550.198 177.286 550.495 177.484 550.828 177.609C551.172 177.734 551.547 177.797 551.953 177.797C552.453 177.797 552.896 177.698 553.281 177.5C553.677 177.292 554.01 176.969 554.281 176.531C554.562 176.083 554.771 175.5 554.906 174.781C555.042 174.062 555.109 173.188 555.109 172.156ZM578 167.625V171.562C578 173.271 577.818 174.745 577.453 175.984C577.089 177.214 576.562 178.224 575.875 179.016C575.198 179.797 574.391 180.375 573.453 180.75C572.516 181.125 571.474 181.312 570.328 181.312C569.411 181.312 568.557 181.198 567.766 180.969C566.974 180.729 566.26 180.359 565.625 179.859C565 179.359 564.458 178.729 564 177.969C563.552 177.198 563.208 176.281 562.969 175.219C562.729 174.156 562.609 172.938 562.609 171.562V167.625C562.609 165.917 562.792 164.453 563.156 163.234C563.531 162.005 564.057 161 564.734 160.219C565.422 159.438 566.234 158.865 567.172 158.5C568.109 158.125 569.151 157.938 570.297 157.938C571.214 157.938 572.062 158.057 572.844 158.297C573.635 158.526 574.349 158.885 574.984 159.375C575.62 159.865 576.161 160.495 576.609 161.266C577.057 162.026 577.401 162.938 577.641 164C577.88 165.052 578 166.26 578 167.625ZM573.484 172.156V167.016C573.484 166.193 573.438 165.474 573.344 164.859C573.26 164.245 573.13 163.724 572.953 163.297C572.776 162.859 572.557 162.505 572.297 162.234C572.036 161.964 571.74 161.766 571.406 161.641C571.073 161.516 570.703 161.453 570.297 161.453C569.786 161.453 569.333 161.552 568.938 161.75C568.552 161.948 568.224 162.266 567.953 162.703C567.682 163.13 567.474 163.703 567.328 164.422C567.193 165.13 567.125 165.995 567.125 167.016V172.156C567.125 172.979 567.167 173.703 567.25 174.328C567.344 174.953 567.479 175.49 567.656 175.938C567.844 176.375 568.062 176.734 568.312 177.016C568.573 177.286 568.87 177.484 569.203 177.609C569.547 177.734 569.922 177.797 570.328 177.797C570.828 177.797 571.271 177.698 571.656 177.5C572.052 177.292 572.385 176.969 572.656 176.531C572.938 176.083 573.146 175.5 573.281 174.781C573.417 174.062 573.484 173.188 573.484 172.156ZM585.516 177.203L585.5 180.219C585.5 181.375 585.208 182.542 584.625 183.719C584.052 184.896 583.323 185.859 582.438 186.609L580.094 185.406C580.354 184.927 580.609 184.448 580.859 183.969C581.109 183.49 581.318 182.964 581.484 182.391C581.651 181.818 581.734 181.167 581.734 180.438V177.203H585.516ZM598 169.469V173H589.172V169.469H598Z" fill="black"/>
<rect width="1024" height="368" transform="translate(0 237)" fill="white"/>
<g filter="url(#filter0_d_47_242)">
<mask id="path-7-inside-2_47_242" fill="white">
<path d="M292 269C292 264.582 295.582 261 300 261H484C488.418 261 492 264.582 492 269V349C492 353.418 488.418 357 484 357H300C295.582 357 292 353.418 292 349V269Z"/>
</mask>
<path d="M292 269C292 264.582 295.582 261 300 261H484C488.418 261 492 264.582 492 269V349C492 353.418 488.418 357 484 357H300C295.582 357 292 353.418 292 349V269Z" fill="#ECEDF3" shape-rendering="crispEdges"/>
<path d="M292 261H492H292ZM492 349C492 353.971 487.971 358 483 358H301C296.029 358 292 353.971 292 349C292 352.866 295.582 356 300 356H484C488.418 356 492 352.866 492 349ZM292 357V261V357ZM492 261V357V261Z" fill="#88888C" mask="url(#path-7-inside-2_47_242)"/>
<path d="M377.709 311.431H379.396C379.309 312.239 379.077 312.963 378.702 313.602C378.327 314.24 377.797 314.747 377.111 315.122C376.426 315.491 375.57 315.676 374.545 315.676C373.795 315.676 373.112 315.535 372.497 315.254C371.888 314.973 371.363 314.574 370.924 314.059C370.484 313.537 370.145 312.913 369.904 312.187C369.67 311.454 369.553 310.64 369.553 309.743V308.469C369.553 307.572 369.67 306.761 369.904 306.034C370.145 305.302 370.487 304.675 370.933 304.153C371.384 303.632 371.926 303.23 372.559 302.949C373.191 302.668 373.903 302.527 374.694 302.527C375.661 302.527 376.479 302.709 377.146 303.072C377.814 303.436 378.333 303.939 378.702 304.584C379.077 305.223 379.309 305.964 379.396 306.808H377.709C377.627 306.21 377.475 305.697 377.252 305.27C377.029 304.836 376.713 304.502 376.303 304.268C375.893 304.033 375.356 303.916 374.694 303.916C374.126 303.916 373.625 304.024 373.191 304.241C372.764 304.458 372.403 304.766 372.11 305.164C371.823 305.562 371.606 306.04 371.46 306.597C371.313 307.153 371.24 307.771 371.24 308.451V309.743C371.24 310.37 371.305 310.959 371.434 311.51C371.568 312.061 371.771 312.544 372.04 312.96C372.31 313.376 372.652 313.704 373.068 313.944C373.484 314.179 373.977 314.296 374.545 314.296C375.266 314.296 375.84 314.182 376.268 313.953C376.695 313.725 377.018 313.396 377.234 312.969C377.457 312.541 377.615 312.028 377.709 311.431ZM386.445 303.837L382.209 315.5H380.478L385.355 302.703H386.472L386.445 303.837ZM389.996 315.5L385.751 303.837L385.725 302.703H386.841L391.736 315.5H389.996ZM389.776 310.763V312.151H382.587V310.763H389.776ZM400.271 312.266C400.271 311.967 400.224 311.703 400.13 311.475C400.042 311.24 399.884 311.029 399.655 310.842C399.433 310.654 399.122 310.476 398.724 310.306C398.331 310.136 397.833 309.963 397.229 309.787C396.597 309.6 396.025 309.392 395.516 309.163C395.006 308.929 394.569 308.662 394.206 308.363C393.843 308.064 393.564 307.722 393.371 307.335C393.178 306.948 393.081 306.506 393.081 306.008C393.081 305.51 393.184 305.05 393.389 304.628C393.594 304.206 393.887 303.84 394.268 303.529C394.654 303.213 395.114 302.967 395.647 302.791C396.181 302.615 396.775 302.527 397.432 302.527C398.393 302.527 399.207 302.712 399.875 303.081C400.549 303.444 401.062 303.922 401.413 304.514C401.765 305.1 401.94 305.727 401.94 306.395H400.253C400.253 305.914 400.15 305.489 399.945 305.12C399.74 304.745 399.43 304.452 399.014 304.241C398.598 304.024 398.07 303.916 397.432 303.916C396.828 303.916 396.33 304.007 395.938 304.188C395.545 304.37 395.252 304.616 395.059 304.927C394.871 305.237 394.777 305.592 394.777 305.99C394.777 306.26 394.833 306.506 394.944 306.729C395.062 306.945 395.24 307.147 395.48 307.335C395.727 307.522 396.037 307.695 396.412 307.854C396.793 308.012 397.247 308.164 397.774 308.311C398.501 308.516 399.128 308.744 399.655 308.996C400.183 309.248 400.616 309.532 400.956 309.849C401.302 310.159 401.557 310.514 401.721 310.912C401.891 311.305 401.976 311.75 401.976 312.248C401.976 312.77 401.87 313.241 401.659 313.663C401.448 314.085 401.146 314.445 400.754 314.744C400.361 315.043 399.89 315.274 399.339 315.438C398.794 315.597 398.185 315.676 397.511 315.676C396.919 315.676 396.336 315.594 395.762 315.43C395.193 315.266 394.675 315.02 394.206 314.691C393.743 314.363 393.371 313.959 393.09 313.479C392.814 312.992 392.677 312.43 392.677 311.791H394.364C394.364 312.23 394.449 312.608 394.619 312.925C394.789 313.235 395.021 313.493 395.313 313.698C395.612 313.903 395.949 314.056 396.324 314.155C396.705 314.249 397.101 314.296 397.511 314.296C398.103 314.296 398.604 314.214 399.014 314.05C399.424 313.886 399.734 313.651 399.945 313.347C400.162 313.042 400.271 312.682 400.271 312.266ZM412.496 308.205V309.585H405.57V308.205H412.496ZM405.834 302.703V315.5H404.138V302.703H405.834ZM413.973 302.703V315.5H412.285V302.703H413.973Z" fill="black"/>
</g>
<g filter="url(#filter1_d_47_242)">
<mask id="path-10-inside-3_47_242" fill="white">
<path d="M292 381C292 376.582 295.582 373 300 373H484C488.418 373 492 376.582 492 381V461C492 465.418 488.418 469 484 469H300C295.582 469 292 465.418 292 461V381Z"/>
</mask>
<path d="M292 381C292 376.582 295.582 373 300 373H484C488.418 373 492 376.582 492 381V461C492 465.418 488.418 469 484 469H300C295.582 469 292 465.418 292 461V381Z" fill="#ECEDF3" shape-rendering="crispEdges"/>
<path d="M292 373H492H292ZM492 461C492 465.971 487.971 470 483 470H301C296.029 470 292 465.971 292 461C292 464.866 295.582 468 300 468H484C488.418 468 492 464.866 492 461ZM292 469V373V469ZM492 373V469V373Z" fill="#88888C" mask="url(#path-10-inside-3_47_242)"/>
<path d="M372.629 427.5H369.957L369.975 426.12H372.629C373.543 426.12 374.305 425.93 374.914 425.549C375.523 425.162 375.98 424.623 376.285 423.932C376.596 423.234 376.751 422.42 376.751 421.488V420.706C376.751 419.974 376.663 419.323 376.487 418.755C376.312 418.181 376.054 417.697 375.714 417.305C375.374 416.906 374.958 416.604 374.466 416.399C373.979 416.194 373.42 416.092 372.787 416.092H369.904V414.703H372.787C373.625 414.703 374.39 414.844 375.081 415.125C375.772 415.4 376.367 415.802 376.865 416.329C377.369 416.851 377.756 417.483 378.025 418.228C378.295 418.966 378.43 419.798 378.43 420.724V421.488C378.43 422.414 378.295 423.249 378.025 423.993C377.756 424.731 377.366 425.361 376.856 425.883C376.353 426.404 375.743 426.806 375.028 427.087C374.319 427.362 373.52 427.5 372.629 427.5ZM370.862 414.703V427.5H369.166V414.703H370.862ZM389.108 426.12V427.5H382.332V426.12H389.108ZM382.675 414.703V427.5H380.979V414.703H382.675ZM388.212 420.205V421.585H382.332V420.205H388.212ZM389.021 414.703V416.092H382.332V414.703H389.021ZM395.771 421.515H392.527L392.51 420.152H395.454C395.94 420.152 396.365 420.07 396.729 419.906C397.092 419.742 397.373 419.508 397.572 419.203C397.777 418.893 397.88 418.523 397.88 418.096C397.88 417.627 397.789 417.246 397.607 416.953C397.432 416.654 397.159 416.438 396.79 416.303C396.427 416.162 395.964 416.092 395.401 416.092H392.905V427.5H391.209V414.703H395.401C396.058 414.703 396.644 414.771 397.159 414.905C397.675 415.034 398.111 415.239 398.469 415.521C398.832 415.796 399.107 416.147 399.295 416.575C399.482 417.003 399.576 417.516 399.576 418.113C399.576 418.641 399.441 419.118 399.172 419.546C398.902 419.968 398.527 420.313 398.047 420.583C397.572 420.853 397.016 421.025 396.377 421.102L395.771 421.515ZM395.691 427.5H391.859L392.817 426.12H395.691C396.23 426.12 396.688 426.026 397.062 425.839C397.443 425.651 397.733 425.388 397.933 425.048C398.132 424.702 398.231 424.295 398.231 423.826C398.231 423.352 398.146 422.941 397.977 422.596C397.807 422.25 397.54 421.983 397.177 421.796C396.813 421.608 396.345 421.515 395.771 421.515H393.354L393.371 420.152H396.676L397.036 420.645C397.651 420.697 398.173 420.873 398.601 421.172C399.028 421.465 399.354 421.84 399.576 422.297C399.805 422.754 399.919 423.258 399.919 423.809C399.919 424.605 399.743 425.279 399.392 425.83C399.046 426.375 398.557 426.791 397.924 427.078C397.291 427.359 396.547 427.5 395.691 427.5ZM404.243 414.703V427.5H402.547V414.703H404.243ZM411.793 414.703V427.5H410.123V414.703H411.793ZM415.906 414.703V416.092H406.019V414.703H415.906Z" fill="black"/>
</g>
<g filter="url(#filter2_d_47_242)">
<mask id="path-13-inside-4_47_242" fill="white">
<path d="M292 493C292 488.582 295.582 485 300 485H484C488.418 485 492 488.582 492 493V573C492 577.418 488.418 581 484 581H300C295.582 581 292 577.418 292 573V493Z"/>
</mask>
<path d="M292 493C292 488.582 295.582 485 300 485H484C488.418 485 492 488.582 492 493V573C492 577.418 488.418 581 484 581H300C295.582 581 292 577.418 292 573V493Z" fill="#ECEDF3" shape-rendering="crispEdges"/>
<path d="M292 485H492H292ZM492 573C492 577.971 487.971 582 483 582H301C296.029 582 292 577.971 292 573C292 576.866 295.582 580 300 580H484C488.418 580 492 576.866 492 573ZM292 581V485V581ZM492 485V581V485Z" fill="#88888C" mask="url(#path-13-inside-4_47_242)"/>
<path d="M371.091 535.431H372.778C372.69 536.239 372.459 536.963 372.084 537.602C371.709 538.24 371.179 538.747 370.493 539.122C369.808 539.491 368.952 539.676 367.927 539.676C367.177 539.676 366.494 539.535 365.879 539.254C365.27 538.973 364.745 538.574 364.306 538.059C363.866 537.537 363.526 536.913 363.286 536.187C363.052 535.454 362.935 534.64 362.935 533.743V532.469C362.935 531.572 363.052 530.761 363.286 530.034C363.526 529.302 363.869 528.675 364.314 528.153C364.766 527.632 365.308 527.23 365.94 526.949C366.573 526.668 367.285 526.527 368.076 526.527C369.043 526.527 369.86 526.709 370.528 527.072C371.196 527.436 371.715 527.939 372.084 528.584C372.459 529.223 372.69 529.964 372.778 530.808H371.091C371.009 530.21 370.856 529.697 370.634 529.27C370.411 528.836 370.095 528.502 369.685 528.268C369.274 528.033 368.738 527.916 368.076 527.916C367.508 527.916 367.007 528.024 366.573 528.241C366.146 528.458 365.785 528.766 365.492 529.164C365.205 529.562 364.988 530.04 364.842 530.597C364.695 531.153 364.622 531.771 364.622 532.451V533.743C364.622 534.37 364.687 534.959 364.815 535.51C364.95 536.061 365.152 536.544 365.422 536.96C365.691 537.376 366.034 537.704 366.45 537.944C366.866 538.179 367.358 538.296 367.927 538.296C368.647 538.296 369.222 538.182 369.649 537.953C370.077 537.725 370.399 537.396 370.616 536.969C370.839 536.541 370.997 536.028 371.091 535.431ZM375.09 526.703H379.326C380.287 526.703 381.099 526.85 381.761 527.143C382.429 527.436 382.936 527.869 383.281 528.443C383.633 529.012 383.809 529.712 383.809 530.544C383.809 531.13 383.688 531.666 383.448 532.152C383.214 532.633 382.874 533.043 382.429 533.383C381.989 533.717 381.462 533.966 380.847 534.13L380.372 534.314H376.391L376.373 532.935H379.379C379.988 532.935 380.495 532.829 380.899 532.618C381.304 532.401 381.608 532.111 381.813 531.748C382.019 531.385 382.121 530.983 382.121 530.544C382.121 530.052 382.024 529.621 381.831 529.252C381.638 528.883 381.333 528.599 380.917 528.399C380.507 528.194 379.977 528.092 379.326 528.092H376.786V539.5H375.09V526.703ZM382.569 539.5L379.458 533.699L381.225 533.69L384.38 539.395V539.5H382.569ZM394.312 538.12V539.5H387.535V538.12H394.312ZM387.878 526.703V539.5H386.182V526.703H387.878ZM393.415 532.205V533.585H387.535V532.205H393.415ZM394.224 526.703V528.092H387.535V526.703H394.224ZM399.875 539.5H397.203L397.221 538.12H399.875C400.789 538.12 401.551 537.93 402.16 537.549C402.77 537.162 403.227 536.623 403.531 535.932C403.842 535.234 403.997 534.42 403.997 533.488V532.706C403.997 531.974 403.909 531.323 403.733 530.755C403.558 530.181 403.3 529.697 402.96 529.305C402.62 528.906 402.204 528.604 401.712 528.399C401.226 528.194 400.666 528.092 400.033 528.092H397.15V526.703H400.033C400.871 526.703 401.636 526.844 402.327 527.125C403.019 527.4 403.613 527.802 404.111 528.329C404.615 528.851 405.002 529.483 405.271 530.228C405.541 530.966 405.676 531.798 405.676 532.724V533.488C405.676 534.414 405.541 535.249 405.271 535.993C405.002 536.731 404.612 537.361 404.103 537.883C403.599 538.404 402.989 538.806 402.274 539.087C401.565 539.362 400.766 539.5 399.875 539.5ZM398.108 526.703V539.5H396.412V526.703H398.108ZM410.044 526.703V539.5H408.348V526.703H410.044ZM417.594 526.703V539.5H415.924V526.703H417.594ZM421.707 526.703V528.092H411.819V526.703H421.707Z" fill="black"/>
</g>
<g filter="url(#filter3_d_47_242)">
<mask id="path-16-inside-5_47_242" fill="white">
<path d="M532 269C532 264.582 535.582 261 540 261H724C728.418 261 732 264.582 732 269V349C732 353.418 728.418 357 724 357H540C535.582 357 532 353.418 532 349V269Z"/>
</mask>
<path d="M532 269C532 264.582 535.582 261 540 261H724C728.418 261 732 264.582 732 269V349C732 353.418 728.418 357 724 357H540C535.582 357 532 353.418 532 349V269Z" fill="#ECEDF3" shape-rendering="crispEdges"/>
<path d="M532 261H732H532ZM732 349C732 353.971 727.971 358 723 358H541C536.029 358 532 353.971 532 349C532 352.866 535.582 356 540 356H724C728.418 356 732 352.866 732 349ZM532 357V261V357ZM732 261V357V261Z" fill="#88888C" mask="url(#path-16-inside-5_47_242)"/>
<path d="M600.069 314.12V315.5H593.293V314.12H600.069ZM593.636 302.703V315.5H591.939V302.703H593.636ZM599.173 308.205V309.585H593.293V308.205H599.173ZM599.981 302.703V304.092H593.293V302.703H599.981ZM605.308 309.392V310.728H601.019V309.392H605.308ZM610.511 311.633L613.051 302.703H614.281L613.569 306.175L610.836 315.5H609.614L610.511 311.633ZM607.883 302.703L609.904 311.457L610.511 315.5H609.298L606.195 302.703H607.883ZM617.568 311.448L619.546 302.703H621.242L618.148 315.5H616.936L617.568 311.448ZM614.466 302.703L616.936 311.633L617.832 315.5H616.61L613.974 306.175L613.253 302.703H614.466ZM627.474 303.837L623.237 315.5H621.506L626.384 302.703H627.5L627.474 303.837ZM631.024 315.5L626.779 303.837L626.753 302.703H627.869L632.765 315.5H631.024ZM630.805 310.763V312.151H623.615V310.763H630.805ZM642.239 314.12V315.5H635.841V314.12H642.239ZM636.175 302.703V315.5H634.479V302.703H636.175ZM651.942 314.12V315.5H645.544V314.12H651.942ZM645.878 302.703V315.5H644.182V302.703H645.878ZM662.015 314.12V315.5H655.238V314.12H662.015ZM655.581 302.703V315.5H653.885V302.703H655.581ZM661.118 308.205V309.585H655.238V308.205H661.118ZM661.927 302.703V304.092H655.238V302.703H661.927ZM669.02 302.703V315.5H667.35V302.703H669.02ZM673.133 302.703V304.092H663.245V302.703H673.133Z" fill="black"/>
</g>
<g filter="url(#filter4_d_47_242)">
<mask id="path-19-inside-6_47_242" fill="white">
<path d="M532 381C532 376.582 535.582 373 540 373H724C728.418 373 732 376.582 732 381V461C732 465.418 728.418 469 724 469H540C535.582 469 532 465.418 532 461V381Z"/>
</mask>
<path d="M532 381C532 376.582 535.582 373 540 373H724C728.418 373 732 376.582 732 381V461C732 465.418 728.418 469 724 469H540C535.582 469 532 465.418 532 461V381Z" fill="#ECEDF3" shape-rendering="crispEdges"/>
<path d="M532 373H732H532ZM732 461C732 465.971 727.971 470 723 470H541C536.029 470 532 465.971 532 461C532 464.866 535.582 468 540 468H724C728.418 468 732 464.866 732 461ZM532 469V373V469ZM732 373V469V373Z" fill="#88888C" mask="url(#path-19-inside-6_47_242)"/>
<path d="M620.513 426.032L623.765 428.607L622.622 429.662L619.423 427.122L620.513 426.032ZM623.721 420.697V421.506C623.721 422.467 623.601 423.328 623.36 424.09C623.12 424.852 622.774 425.499 622.323 426.032C621.872 426.565 621.33 426.973 620.697 427.254C620.07 427.535 619.367 427.676 618.588 427.676C617.832 427.676 617.138 427.535 616.505 427.254C615.878 426.973 615.333 426.565 614.87 426.032C614.413 425.499 614.059 424.852 613.807 424.09C613.555 423.328 613.429 422.467 613.429 421.506V420.697C613.429 419.736 613.552 418.878 613.798 418.122C614.05 417.36 614.404 416.713 614.861 416.18C615.318 415.641 615.86 415.23 616.487 414.949C617.12 414.668 617.814 414.527 618.57 414.527C619.35 414.527 620.056 414.668 620.688 414.949C621.321 415.23 621.863 415.641 622.314 416.18C622.766 416.713 623.111 417.36 623.352 418.122C623.598 418.878 623.721 419.736 623.721 420.697ZM622.042 421.506V420.68C622.042 419.918 621.963 419.244 621.805 418.658C621.652 418.072 621.427 417.58 621.128 417.182C620.829 416.783 620.466 416.481 620.038 416.276C619.61 416.071 619.121 415.969 618.57 415.969C618.049 415.969 617.574 416.071 617.146 416.276C616.725 416.481 616.361 416.783 616.057 417.182C615.752 417.58 615.518 418.072 615.354 418.658C615.189 419.244 615.107 419.918 615.107 420.68V421.506C615.107 422.273 615.189 422.953 615.354 423.545C615.518 424.131 615.752 424.626 616.057 425.03C616.367 425.429 616.736 425.73 617.164 425.936C617.592 426.141 618.066 426.243 618.588 426.243C619.139 426.243 619.628 426.141 620.056 425.936C620.483 425.73 620.844 425.429 621.137 425.03C621.436 424.626 621.661 424.131 621.813 423.545C621.966 422.953 622.042 422.273 622.042 421.506ZM626.34 414.703H630.576C631.537 414.703 632.349 414.85 633.011 415.143C633.679 415.436 634.186 415.869 634.531 416.443C634.883 417.012 635.059 417.712 635.059 418.544C635.059 419.13 634.938 419.666 634.698 420.152C634.464 420.633 634.124 421.043 633.679 421.383C633.239 421.717 632.712 421.966 632.097 422.13L631.622 422.314H627.641L627.623 420.935H630.629C631.238 420.935 631.745 420.829 632.149 420.618C632.554 420.401 632.858 420.111 633.063 419.748C633.269 419.385 633.371 418.983 633.371 418.544C633.371 418.052 633.274 417.621 633.081 417.252C632.888 416.883 632.583 416.599 632.167 416.399C631.757 416.194 631.227 416.092 630.576 416.092H628.036V427.5H626.34V414.703ZM633.819 427.5L630.708 421.699L632.475 421.69L635.63 427.395V427.5H633.819ZM639.251 414.703V427.5H637.555V414.703H639.251ZM649.156 424.266C649.156 423.967 649.109 423.703 649.016 423.475C648.928 423.24 648.77 423.029 648.541 422.842C648.318 422.654 648.008 422.476 647.609 422.306C647.217 422.136 646.719 421.963 646.115 421.787C645.482 421.6 644.911 421.392 644.401 421.163C643.892 420.929 643.455 420.662 643.092 420.363C642.729 420.064 642.45 419.722 642.257 419.335C642.063 418.948 641.967 418.506 641.967 418.008C641.967 417.51 642.069 417.05 642.274 416.628C642.479 416.206 642.772 415.84 643.153 415.529C643.54 415.213 644 414.967 644.533 414.791C645.066 414.615 645.661 414.527 646.317 414.527C647.278 414.527 648.093 414.712 648.761 415.081C649.435 415.444 649.947 415.922 650.299 416.514C650.65 417.1 650.826 417.727 650.826 418.395H649.139C649.139 417.914 649.036 417.489 648.831 417.12C648.626 416.745 648.315 416.452 647.899 416.241C647.483 416.024 646.956 415.916 646.317 415.916C645.714 415.916 645.216 416.007 644.823 416.188C644.431 416.37 644.138 416.616 643.944 416.927C643.757 417.237 643.663 417.592 643.663 417.99C643.663 418.26 643.719 418.506 643.83 418.729C643.947 418.945 644.126 419.147 644.366 419.335C644.612 419.522 644.923 419.695 645.298 419.854C645.679 420.012 646.133 420.164 646.66 420.311C647.387 420.516 648.014 420.744 648.541 420.996C649.068 421.248 649.502 421.532 649.842 421.849C650.188 422.159 650.442 422.514 650.606 422.912C650.776 423.305 650.861 423.75 650.861 424.248C650.861 424.77 650.756 425.241 650.545 425.663C650.334 426.085 650.032 426.445 649.64 426.744C649.247 427.043 648.775 427.274 648.225 427.438C647.68 427.597 647.07 427.676 646.396 427.676C645.805 427.676 645.222 427.594 644.647 427.43C644.079 427.266 643.561 427.02 643.092 426.691C642.629 426.363 642.257 425.959 641.976 425.479C641.7 424.992 641.562 424.43 641.562 423.791H643.25C643.25 424.23 643.335 424.608 643.505 424.925C643.675 425.235 643.906 425.493 644.199 425.698C644.498 425.903 644.835 426.056 645.21 426.155C645.591 426.249 645.986 426.296 646.396 426.296C646.988 426.296 647.489 426.214 647.899 426.05C648.31 425.886 648.62 425.651 648.831 425.347C649.048 425.042 649.156 424.682 649.156 424.266Z" fill="black"/>
</g>
</g>
<defs>
<filter id="filter0_d_47_242" x="288" y="261" width="208" height="104" filterUnits="userSpaceOnUse" color-interpolation-filters="sRGB">
<feFlood flood-opacity="0" result="BackgroundImageFix"/>
<feColorMatrix in="SourceAlpha" type="matrix" values="0 0 0 0 0 0 0 0 0 0 0 0 0 0 0 0 0 0 127 0" result="hardAlpha"/>
<feOffset dy="4"/>
<feGaussianBlur stdDeviation="2"/>
<feComposite in2="hardAlpha" operator="out"/>
<feColorMatrix type="matrix" values="0 0 0 0 0 0 0 0 0 0 0 0 0 0 0 0 0 0 0.25 0"/>
<feBlend mode="normal" in2="BackgroundImageFix" result="effect1_dropShadow_47_242"/>
<feBlend mode="normal" in="SourceGraphic" in2="effect1_dropShadow_47_242" result="shape"/>
</filter>
<filter id="filter1_d_47_242" x="288" y="373" width="208" height="104" filterUnits="userSpaceOnUse" color-interpolation-filters="sRGB">
<feFlood flood-opacity="0" result="BackgroundImageFix"/>
<feColorMatrix in="SourceAlpha" type="matrix" values="0 0 0 0 0 0 0 0 0 0 0 0 0 0 0 0 0 0 127 0" result="hardAlpha"/>
<feOffset dy="4"/>
<feGaussianBlur stdDeviation="2"/>
<feComposite in2="hardAlpha" operator="out"/>
<feColorMatrix type="matrix" values="0 0 0 0 0 0 0 0 0 0 0 0 0 0 0 0 0 0 0.25 0"/>
<feBlend mode="normal" in2="BackgroundImageFix" result="effect1_dropShadow_47_242"/>
<feBlend mode="normal" in="SourceGraphic" in2="effect1_dropShadow_47_242" result="shape"/>
</filter>
<filter id="filter2_d_47_242" x="288" y="485" width="208" height="104" filterUnits="userSpaceOnUse" color-interpolation-filters="sRGB">
<feFlood flood-opacity="0" result="BackgroundImageFix"/>
<feColorMatrix in="SourceAlpha" type="matrix" values="0 0 0 0 0 0 0 0 0 0 0 0 0 0 0 0 0 0 127 0" result="hardAlpha"/>
<feOffset dy="4"/>
<feGaussianBlur stdDeviation="2"/>
<feComposite in2="hardAlpha" operator="out"/>
<feColorMatrix type="matrix" values="0 0 0 0 0 0 0 0 0 0 0 0 0 0 0 0 0 0 0.25 0"/>
<feBlend mode="normal" in2="BackgroundImageFix" result="effect1_dropShadow_47_242"/>
<feBlend mode="normal" in="SourceGraphic" in2="effect1_dropShadow_47_242" result="shape"/>
</filter>
<filter id="filter3_d_47_242" x="528" y="261" width="208" height="104" filterUnits="userSpaceOnUse" color-interpolation-filters="sRGB">
<feFlood flood-opacity="0" result="BackgroundImageFix"/>
<feColorMatrix in="SourceAlpha" type="matrix" values="0 0 0 0 0 0 0 0 0 0 0 0 0 0 0 0 0 0 127 0" result="hardAlpha"/>
<feOffset dy="4"/>
<feGaussianBlur stdDeviation="2"/>
<feComposite in2="hardAlpha" operator="out"/>
<feColorMatrix type="matrix" values="0 0 0 0 0 0 0 0 0 0 0 0 0 0 0 0 0 0 0.25 0"/>
<feBlend mode="normal" in2="BackgroundImageFix" result="effect1_dropShadow_47_242"/>
<feBlend mode="normal" in="SourceGraphic" in2="effect1_dropShadow_47_242" result="shape"/>
</filter>
<filter id="filter4_d_47_242" x="528" y="373" width="208" height="104" filterUnits="userSpaceOnUse" color-interpolation-filters="sRGB">
<feFlood flood-opacity="0" result="BackgroundImageFix"/>
<feColorMatrix in="SourceAlpha" type="matrix" values="0 0 0 0 0 0 0 0 0 0 0 0 0 0 0 0 0 0 127 0" result="hardAlpha"/>
<feOffset dy="4"/>
<feGaussianBlur stdDeviation="2"/>
<feComposite in2="hardAlpha" operator="out"/>
<feColorMatrix type="matrix" values="0 0 0 0 0 0 0 0 0 0 0 0 0 0 0 0 0 0 0.25 0"/>
<feBlend mode="normal" in2="BackgroundImageFix" result="effect1_dropShadow_47_242"/>
<feBlend mode="normal" in="SourceGraphic" in2="effect1_dropShadow_47_242" result="shape"/>
</filter>
<clipPath id="clip0_47_242">
<rect width="1024" height="744" fill="white"/>
</clipPath>
<clipPath id="clip1_47_242">
<rect width="40" height="40" fill="white" transform="translate(8 16)"/>
</clipPath>
</defs>
</svg>
